HIERARCHY
ROOT hip
{
  OFFSET 0 0 0
  CHANNELS 6 Xposition Yposition Zposition Zrotation Yrotation Xrotation
  JOINT abdomen
  {
    OFFSET 0 20.6881 -0.73152
    CHANNELS 3 Zrotation Xrotation Yrotation
    JOINT chest
    {
      OFFSET 0 11.7043 -0.48768
      CHANNELS 3 Zrotation Xrotation Yrotation
      JOINT neck
      {
        OFFSET 0 22.1894 -2.19456
        CHANNELS 3 Zrotation Xrotation Yrotation
        JOINT head
        {
          OFFSET -0.24384 7.07133 1.2192
          CHANNELS 3 Zrotation Xrotation Yrotation
          JOINT leftEye
          {
            OFFSET 4.14528 8.04674 8.04672
            CHANNELS 3 Zrotation Xrotation Yrotation
            End Site
            {
              OFFSET 1 0 0
            }
          }
          JOINT rightEye
          {
            OFFSET -3.6576 8.04674 8.04672
            CHANNELS 3 Zrotation Xrotation Yrotation
            End Site
            {
              OFFSET 1 0 0
            }
          }
        }
      }
      JOINT rCollar
      {
        OFFSET -2.68224 19.2634 -4.8768
        CHANNELS 3 Zrotation Xrotation Yrotation
        JOINT rShldr
        {
          OFFSET -8.77824 -1.95073 1.46304
          CHANNELS 3 Zrotation Xrotation Yrotation
          JOINT rForeArm
          {
            OFFSET -28.1742 -1.7115 0.48768
            CHANNELS 3 Zrotation Xrotation Yrotation
            JOINT rHand
            {
              OFFSET -22.5879 0.773209 7.07136
              CHANNELS 3 Zrotation Xrotation Yrotation
              JOINT rThumb1
              {
                OFFSET -1.2192 -0.487915 3.41376
                CHANNELS 3 Zrotation Xrotation Yrotation
                JOINT rThumb2
                {
                  OFFSET -3.37035 -0.52449 3.41376
                  CHANNELS 3 Zrotation Xrotation Yrotation
                  End Site
                  {
                    OFFSET -1.78271 -1.18214 1.43049
                  }
                }
              }
              JOINT rIndex1
              {
                OFFSET -7.75947 0.938293 5.60832
                CHANNELS 3 Zrotation Xrotation Yrotation
                JOINT rIndex2
                {
                  OFFSET -2.54057 -0.884171 1.56538
                  CHANNELS 3 Zrotation Xrotation Yrotation
                  End Site
                  {
                    OFFSET -1.62519 -0.234802 1.16502
                  }
                }
              }
              JOINT rMid1
              {
                OFFSET -8.24714 1.18213 3.41376
                CHANNELS 3 Zrotation Xrotation Yrotation
                JOINT rMid2
                {
                  OFFSET -3.10165 -0.590103 1.0647
                  CHANNELS 3 Zrotation Xrotation Yrotation
                  End Site
                  {
                    OFFSET -2.48547 -0.328903 0.83742
                  }
                }
              }
              JOINT rRing1
              {
                OFFSET -8.82822 0.546677 1.51678
                CHANNELS 3 Zrotation Xrotation Yrotation
                JOINT rRing2
                {
                  OFFSET -2.60934 -0.819778 -0.0198488
                  CHANNELS 3 Zrotation Xrotation Yrotation
                  End Site
                  {
                    OFFSET -2.33842 -0.294052 0.168128
                  }
                }
              }
              JOINT rPinky1
              {
                OFFSET -8.27202 -0.0477905 -0.4584
                CHANNELS 3 Zrotation Xrotation Yrotation
                JOINT rPinky2
                {
                  OFFSET -1.82734 -0.647385 -0.700984
                  CHANNELS 3 Zrotation Xrotation Yrotation
                  End Site
                  {
                    OFFSET -1.69225 -0.51767 -0.607171
                  }
                }
              }
            }
          }
        }
      }
      JOINT lCollar
      {
        OFFSET 2.68224 19.2634 -4.8768
        CHANNELS 3 Zrotation Xrotation Yrotation
        JOINT lShldr
        {
          OFFSET 8.77824 -1.95073 1.46304
          CHANNELS 3 Zrotation Xrotation Yrotation
          JOINT lForeArm
          {
            OFFSET 28.1742 -1.7115 0.48768
            CHANNELS 3 Zrotation Xrotation Yrotation
            JOINT lHand
            {
              OFFSET 22.5879 0.773209 7.07136
              CHANNELS 3 Zrotation Xrotation Yrotation
              JOINT lThumb1
              {
                OFFSET 1.2192 -0.487915 3.41376
                CHANNELS 3 Zrotation Xrotation Yrotation
                JOINT lThumb2
                {
                  OFFSET 3.37035 -0.52449 3.41376
                  CHANNELS 3 Zrotation Xrotation Yrotation
                  End Site
                  {
                    OFFSET 1.78271 -1.18214 1.43049
                  }
                }
              }
              JOINT lIndex1
              {
                OFFSET 7.75947 0.938293 5.60832
                CHANNELS 3 Zrotation Xrotation Yrotation
                JOINT lIndex2
                {
                  OFFSET 2.54057 -0.884171 1.56538
                  CHANNELS 3 Zrotation Xrotation Yrotation
                  End Site
                  {
                    OFFSET 1.62519 -0.234802 1.16502
                  }
                }
              }
              JOINT lMid1
              {
                OFFSET 8.24714 1.18213 3.41376
                CHANNELS 3 Zrotation Xrotation Yrotation
                JOINT lMid2
                {
                  OFFSET 3.10165 -0.590103 1.0647
                  CHANNELS 3 Zrotation Xrotation Yrotation
                  End Site
                  {
                    OFFSET 2.48547 -0.328903 0.83742
                  }
                }
              }
              JOINT lRing1
              {
                OFFSET 8.82822 0.546677 1.51678
                CHANNELS 3 Zrotation Xrotation Yrotation
                JOINT lRing2
                {
                  OFFSET 2.60934 -0.819778 -0.0198488
                  CHANNELS 3 Zrotation Xrotation Yrotation
                  End Site
                  {
                    OFFSET 2.33842 -0.294052 0.168128
                  }
                }
              }
              JOINT lPinky1
              {
                OFFSET 8.27202 -0.0477905 -0.4584
                CHANNELS 3 Zrotation Xrotation Yrotation
                JOINT lPinky2
                {
                  OFFSET 1.82734 -0.647385 -0.700984
                  CHANNELS 3 Zrotation Xrotation Yrotation
                  End Site
                  {
                    OFFSET 1.69225 -0.51767 -0.607171
                  }
                }
              }
            }
          }
        }
      }
    }
  }
  JOINT rButtock
  {
    OFFSET -8.77824 4.35084 1.2192
    CHANNELS 3 Zrotation Xrotation Yrotation
    JOINT rThigh
    {
      OFFSET 0 -1.70687 -2.19456
      CHANNELS 3 Zrotation Xrotation Yrotation
      JOINT rShin
      {
        OFFSET 0 -36.8199 0.73152
        CHANNELS 3 Zrotation Xrotation Yrotation
        JOINT rFoot
        {
          OFFSET 0.73152 -45.1104 -5.12064
          CHANNELS 3 Zrotation Xrotation Yrotation
          End Site
          {
            OFFSET -1.1221 -3.69964 12.103
          }
        }
      }
    }
  }
  JOINT lButtock
  {
    OFFSET 8.77824 4.35084 1.2192
    CHANNELS 3 Zrotation Xrotation Yrotation
    JOINT lThigh
    {
      OFFSET 0 -1.70687 -2.19456
      CHANNELS 3 Zrotation Xrotation Yrotation
      JOINT lShin
      {
        OFFSET 0 -36.8199 0.73152
        CHANNELS 3 Zrotation Xrotation Yrotation
        JOINT lFoot
        {
          OFFSET -0.73152 -45.1104 -5.12064
          CHANNELS 3 Zrotation Xrotation Yrotation
          End Site
          {
            OFFSET 1.1221 -3.69964 12.103
          }
        }
      }
    }
  }
}
MOTION
Frames:	8
Frame Time:	0.03333
-4.8431 64.96039999999999 -3.2864999999999998 -11.220373 -52.243222 11.895435 -6.874325 17.30105 -26.87211 14.659207 -3.893643 27.955517 9.061599 33.24518 94.834855 -45.012257 4.928972 -114.974971 -39.810704 4.288213 -11.80618 64.095265 8.408072 13.393697 -172.944815 -54.093344 162.600122 99.563936 60.55382 -89.769196 173.879125 -3.753574 60.577115 173.173658 -7.437181 143.472493 164.150688 -40.493744 84.401144 -130.925313 19.041307 43.072323 5.745941 -58.09854 -2.104038 -28.340601 -63.785957 -124.71085 11.176552 -52.133196 -0.570327 1.45648 -46.300447 -1.644234 -1.507287 -5.533261 0.216243 -110.507038 -78.976111 -120.966368 -117.849406 -0.603177 -112.537966 -156.523726 73.783809 -73.695381 -1.518169 -27.995954 -0.199635 92.625926 -1.689849 170.551659 173.09151 -49.800201 84.738756 5.370269 -21.734386 -1.791234 178.552368 -30.540014 -114.612816 149.166905 -67.944844 168.503589 67.336905 60.97309 -61.061016 73.401391 77.493914 -65.628406 132.44199 -0.415942 -165.25092 -94.936097 67.88481 63.537617 8.231094 -30.968433 28.341627 157.36131 -50.262076 161.039407 -118.712562 55.921775 91.299302 70.123222 -51.094171 30.686289 11.545287 9.502839 4.453403 -55.729558 -65.509514 -171.125273 -77.975662 -27.470081 117.326747 -79.011823 24.361461 8.140518 -146.10127 54.595815 -12.290977 172.468866 6.584886 -106.306101 -91.543065 -35.866116 -144.634186 166.66672 39.099271 94.305343
-5.4272 64.76859999999999 -3.4099999999999997 -11.186806 -50.385194 11.204739 -5.32778 18.757361 -35.932856 14.095961 -2.822548 38.26029 11.722982 31.684654 95.579623 -44.123498 9.818532 -117.076299 -35.540894 1.160719 -3.620552 55.775674 9.38034 17.624869 -149.140635 33.863529 147.174352 -33.827689 8.89186 8.038802 -178.380192 5.220549 -97.531362 -6.720685 24.425046 -0.519512 -151.0741 10.941871 89.414851 -144.101579 -14.303196 51.780976 -34.32522 6.434065 -1.915272 -165.207204 -59.6964 61.187964 -158.425322 16.727737 137.396886 -170.57934 -42.373917 139.551962 -143.627064 5.058981 177.558184 -145.888969 -28.539525 177.890846 105.294403 67.649695 -49.048236 164.462842 -25.835609 -100.557679 -2.086018 -35.706727 -1.08301 -80.422283 3.923121 18.609727 -85.649007 44.776154 -32.091294 25.464254 30.157767 -12.306534 172.244 -18.651998 -115.760735 158.257706 34.591251 -93.96318 -6.453442 -65.659383 45.152637 120.70802 30.704598 -72.09848 111.766098 -60.453025 173.51868 -21.782173 56.773951 -46.138931 142.87312 9.278859 167.790652 41.489753 61.652916 -56.529635 36.352112 0.82714 44.842629 -1.815824 53.007141 -68.193459 -55.231277 28.428525 -34.902017 91.613465 -39.498287 -3.56011 -77.602754 57.522565 170.258036 -9.945425 14.104443 -99.267936 76.592292 28.983825 26.820735 -95.795124 -30.059294 122.749406 88.645643 -48.722431 151.043057 91.791167 -29.831812 156.077019
-5.8533 64.505 -3.2802 -10.546586 -55.33131 11.34754 -9.962135 19.024331 12.302784 9.903756 -13.844342 -8.53003 2.8012 44.367873 -179.55162 -9.381775 56.454236 156.299508 -39.189278 -2.202363 6.181544 66.444518 -3.587437 -5.475153 5.054253 -55.302183 -8.198554 45.148573 -6.629641 -4.108613 -171.333408 -31.24874 64.154939 167.315604 -19.633953 141.155593 -135.169247 18.651236 82.467343 48.144728 -11.056544 62.797034 -0.869189 -44.302629 -7.436247 -90.522394 -45.733576 162.527749 -166.972645 12.127242 137.994705 -0.132254 -5.321388 15.975637 -148.470656 11.929099 178.046388 17.401572 31.422865 -1.03221 -143.261816 22.075946 -119.958651 -31.538609 3.501999 -92.386884 -147.890457 -78.154679 -129.352004 -94.756358 27.195975 86.189649 -175.155613 -42.36095 -46.289211 166.20699 13.917299 -146.632088 5.777029 10.951265 22.023607 -22.752441 1.306541 -14.350656 114.748402 50.618214 -106.216783 -10.943219 42.061553 4.446842 34.749628 -74.852832 94.257236 -64.910256 5.776927 -34.466581 -10.049863 24.112755 2.893773 -19.269678 26.675746 25.253691 140.501469 -6.591021 102.499008 163.339508 34.533345 105.636786 -122.603187 52.201834 -30.394016 134.312397 -12.343276 -175.877619 -40.547263 -85.978921 -109.086147 -109.76845 -32.754057 164.666529 177.439745 52.047323 0.217068 -166.539756 2.183284 62.531129 86.981773 27.782806 5.864495 172.925992 -63.629048 87.403175
-6.2934 63.957600000000006 -3.4869 -11.522861 -56.785717 12.040992 -11.422587 19.714849 45.141411 2.142185 -17.517425 -42.498598 0.210136 43.037148 -174.144817 -6.292834 55.883713 146.485718 -37.553289 -3.624635 10.63446 59.876519 -2.962587 -5.141838 -120.420491 59.619218 123.228249 -31.06147 7.004901 24.047772 -177.525184 -17.482685 -99.010056 -3.927822 21.128119 -1.324354 -4.429081 5.938825 3.998049 -85.951022 -47.645373 -178.855787 -138.691122 32.963147 95.608579 -17.436633 -47.795101 31.534103 91.002185 -78.438084 76.896659 -172.152194 -59.417831 176.865026 1.935137 -3.746779 -10.684477 8.788853 -30.7157 7.699333 -101.788788 -10.186324 -110.620671 -67.609048 34.243711 -169.309649 -17.253523 -66.864282 -10.319095 -106.425286 29.624544 59.37902 -167.341836 -21.242325 -46.073991 161.973743 20.277861 -142.544556 -0.587881 0.876225 21.374818 120.661736 -31.511409 -111.620743 -5.934112 15.477781 17.641937 -121.60569 -75.89568 -91.099713 -29.511664 31.893441 8.527252 65.725615 -6.399894 2.025227 134.937773 -7.9731 167.807638 140.872917 29.958781 -151.832822 130.783504 -4.539726 99.795099 74.410333 -21.190871 93.501284 21.525173 19.536005 25.147977 -92.274525 -40.229768 175.678475 -84.277576 -12.479042 -170.903007 -68.342806 -51.514847 -160.004869 59.844622 26.781905 20.2853 -76.421571 -43.21948 -115.163794 -80.939287 0.698335 109.56262 101.87709 -18.726557 7.21131
-6.7579 63.509499999999996 -3.8733999999999997 -13.836611 -58.877418 13.953854 -8.009073 18.570363 -91.914783 8.886805 11.456058 91.093848 7.833958 29.409901 84.493646 -41.109984 -4.572441 -119.942941 -29.336935 -1.303228 4.975856 62.089625 -4.588703 -7.616215 -0.713003 -4.616997 2.722477 53.624027 -19.46468 29.497465 -179.474674 3.636256 62.377025 168.462581 -14.502158 142.96357 28.479573 -20.042178 3.754264 -30.982926 -26.637345 -65.422377 -13.903578 -25.125791 -5.733632 -37.575699 -80.048407 -168.739236 -142.003846 46.121428 111.813504 -135.519293 3.108754 104.39086 18.262436 40.17146 -5.564102 168.78818 -56.418318 171.214515 -16.540329 -27.809444 -53.555411 -61.996372 10.920338 95.588118 -7.835637 -59.23147 -2.506238 -86.15377 14.928263 45.672339 32.932752 38.693599 -117.587152 2.837651 -39.200657 0.454994 -31.009429 -51.496346 11.63941 0.006803 -28.40987 28.644626 89.080743 63.162168 -86.210901 -0.783277 -55.125815 56.377255 114.999374 -86.9109 175.899968 136.443245 -35.026395 -107.698514 129.386291 -17.575066 163.47706 144.180435 17.334901 -155.30657 172.922432 28.275897 111.766831 13.908395 1.164507 32.319818 -61.013947 11.609434 -20.840351 61.062059 -54.61187 -132.80237 -91.252034 -46.635215 -108.131629 -102.212097 9.065322 -177.549586 -12.314506 15.065076 -5.459909 50.457853 -51.858065 149.274434 89.027546 -9.23903 148.733962 129.239689 -29.758148 -179.133004
-7.3206999999999995 63.0591 -4.3641 -17.26717 -60.705097 17.103517 -9.258515 20.507903 -30.821116 16.630026 -2.120252 31.142878 -15.422775 28.508904 -63.672599 45.837249 5.263688 31.268201 -19.810327 -0.367311 2.103249 63.216681 -7.045717 -11.425352 -141.371011 37.219019 140.76432 161.765156 18.011567 165.639696 17.954161 23.549783 77.65001 -8.33599 33.489531 0.061289 -172.211543 -18.787355 86.497754 -144.867992 -9.853085 39.96903 -111.394602 43.082089 69.585056 -142.997452 8.063499 27.582628 -166.378815 22.51063 129.20105 -173.422298 2.294449 98.598244 -104.16486 -39.160666 -137.80622 -117.362368 -8.554076 177.392719 -126.069374 33.478438 -117.647965 109.116578 27.175081 -1.654471 -18.106989 -79.124644 -6.658177 59.788331 -23.747719 102.780531 137.004814 -9.128686 78.076767 -2.461041 -53.108816 -1.095736 5.62912 9.335748 17.272464 33.426576 20.439764 -39.174329 127.515893 -60.471593 -164.462188 -176.77332 -42.953218 -60.337264 -2.683572 50.607632 -16.081084 87.118103 76.872767 -34.034043 -15.743937 1.850223 11.683399 -172.5216 63.073063 174.122718 -158.667809 48.400498 104.820204 -27.81949 49.770586 27.353278 -69.797745 12.686453 -27.370579 67.480607 -47.151901 153.773556 79.279045 -62.456381 -3.054393 -156.910438 2.600526 106.507698 -131.516994 56.192299 -29.642689 169.650243 17.67627 164.771062 83.638925 -53.123835 167.513909 78.478857 -44.767951 142.755713
-8.0113 62.7042 -4.9165 -21.03643 -62.136378 20.825026 -8.04001 19.347321 -51.55692 14.79489 4.075105 50.691298 7.897044 27.90853 86.51761 -38.718354 -2.586838 -122.146295 -11.43571 -0.174262 1.740259 62.072493 -10.109676 -16.725182 2.982574 -25.714203 1.983424 108.298127 -77.107501 57.319955 -52.028091 66.735253 135.057739 1.762949 2.816084 -1.272363 179.584864 -26.9829 83.886821 66.940784 -43.389313 73.544046 -168.403521 2.02164 117.462497 -78.769105 53.11011 -25.119136 -152.728938 37.96721 116.602139 6.007163 -3.808829 48.577957 20.052847 3.537567 -15.207189 -162.141638 28.584166 137.087905 -110.578607 21.645708 -116.345871 87.453057 -33.612278 5.149958 -2.464885 -45.21163 0.444973 82.799804 -20.27513 146.117217 179.419279 -40.950548 89.87357 9.510708 -12.977746 -3.31525 5.391759 6.905261 17.258172 123.118771 -24.797413 -107.872841 127.690719 -50.923348 -160.024018 148.965566 -52.384139 -77.621158 158.853638 -70.84991 -145.83951 141.46497 -30.944792 -134.77666 126.279795 82.005321 -165.683297 111.662704 -44.414606 139.737874 22.334671 -5.674715 33.452527 97.900315 64.022581 -140.676304 69.934419 55.718528 46.774775 -147.460726 6.659399 134.817506 -27.435957 -88.595589 44.820138 98.773211 -58.040314 -162.083778 128.505987 64.972188 21.616976 -131.077544 8.823686 -115.947053 -78.453951 0.731826 112.201112 -167.289351 -4.640124 -3.69887
-8.7345 62.62140000000001 -5.6002 -23.341314 -62.157788 23.554666 -9.875666 18.452723 34.753632 7.666086 -14.975037 -32.681213 11.602298 27.009593 88.446885 -38.722908 4.138268 -123.715262 -7.746342 -0.015332 0.226456 55.221669 -14.351192 -27.068085 -99.996925 62.27404 99.300462 -80.586812 46.843431 64.178648 74.660225 -27.23301 -74.013948 -175.51726 35.905912 142.878599 8.526174 -0.378504 2.782 -60.167878 -59.585061 -114.184565 -50.309318 29.051165 14.463331 164.675903 -20.337568 18.52136 -151.461876 40.768046 114.548058 154.251286 -23.380457 95.591064 -126.516256 12.886116 -171.29338 53.456579 39.265291 -36.501238 -112.592964 27.481102 -119.45325 -52.087122 32.966699 -162.233198 151.687407 27.516581 -145.516244 165.168697 61.644835 -96.900163 16.761564 -47.003256 142.714323 172.908298 -5.674708 -151.083706 5.094424 9.328504 16.833392 0.769961 1.840331 -13.865516 120.85862 -52.8036 -164.923856 -105.197511 -12.913256 -0.021187 157.364582 -59.442431 -147.609579 -101.692083 -77.714431 -48.09432 -22.850514 15.974944 11.714728 21.400055 -26.827189 20.469739 116.745817 -10.440519 101.036779 -14.717596 -34.476995 15.463544 -107.14557 42.342454 -43.406346 116.242489 -15.875708 -87.417699 -82.941833 -14.672825 28.771929 166.094368 -28.650493 -58.248801 57.68973 32.434666 40.573251 -79.057066 -22.716262 11.50433 77.974029 38.382265 -6.339521 113.365976 -67.555061 28.310729
